<?xml version="1.0" standalone="no"?><!DOCTYPE svg PUBLIC "-//W3C//DTD SVG 1.1//EN" "http://www.w3.org/Graphics/SVG/1.1/DTD/svg11.dtd"><svg t="1725867471293" class="icon" viewBox="0 0 1024 1024" version="1.1" xmlns="http://www.w3.org/2000/svg" p-id="9077" xmlns:xlink="http://www.w3.org/1999/xlink" width="200" height="200"><path d="M118.62016 234.7008A158.72 158.72 0 0 1 277.2992 75.89888h469.31968a30.72 30.72 0 0 1 30.72 30.72v554.68032a30.72 30.72 0 0 1-30.72 30.72H277.34016a97.4848 97.4848 0 0 0-97.28 97.28 97.28 97.28 0 0 0 97.28 97.28h566.59968v-737.28a30.72 30.72 0 0 1 61.44 0v768a30.72 30.72 0 0 1-30.72 30.72H277.34016a158.72 158.72 0 0 1-158.72-158.63808V234.7008z m149.34016 554.5984a30.72 30.72 0 0 1 30.72-30.72h426.63936a30.72 30.72 0 0 1 0 61.44H298.68032a30.72 30.72 0 0 1-30.72-30.72z" p-id="9078" fill="#1296db"></path></svg>