<?xml version="1.0" standalone="no"?><!DOCTYPE svg PUBLIC "-//W3C//DTD SVG 1.1//EN" "http://www.w3.org/Graphics/SVG/1.1/DTD/svg11.dtd"><svg t="1725868180143" class="icon" viewBox="0 0 1024 1024" version="1.1" xmlns="http://www.w3.org/2000/svg" p-id="14629" xmlns:xlink="http://www.w3.org/1999/xlink" width="200" height="200"><path d="M511.72 65.56c246.19 0 447 200.81 447 447s-200.81 447-447 447-447-200.81-447-447 200.81-447 447-447m0 17.85c-236.36 0-429.15 192.78-429.15 429.15s192.78 429.18 429.15 429.18c236.4 0 429.15-192.78 429.15-429.18 0-236.36-192.79-429.15-429.15-429.15" fill="#003F87" p-id="14630"></path><path d="M354.71 703.07c-27.97-23.13-50.84-52.25-66.53-85.42-15.1-31.94-23.52-67.54-23.52-105.08 0-136.05 111.01-247.06 247.06-247.06s247.06 110.97 247.06 247.06c0 37.55-8.46 73.14-23.56 105.08-15.64 33-38.33 62.17-66.49 85.42l-5.67-6.87a239.859 239.859 0 0 0 64.14-82.39 237.117 237.117 0 0 0 22.66-101.29c0-131.17-106.96-238.17-238.13-238.17s-238.13 107-238.13 238.17c-0.04 35.02 7.7 69.62 22.66 101.29a240.288 240.288 0 0 0 64.14 82.39c-0.02 0-5.69 6.87-5.69 6.87zM128.93 661.76l-16.84-45.24 9.21-3.18 77.26 11.74-11.82-31.69 9.18-3.22 15.43 41.45-9.21 3.18-77.22-11.74 13.23 35.49-9.22 3.21z m29.42 61.65l-4.63-9 36.32-18.72-11.53-22.37-36.32 18.65-4.66-9.03 77.66-39.93 4.66 9.03-32.7 16.8 11.49 22.4 32.74-16.8 4.66 9.03-77.69 39.94z m36.86 49.22l-27.61-38.56 72.81-45.24 26.31 36.68-8.09 5.02-20.02-27.93-22.62 14.02 18.43 25.66-8.13 5.02-18.36-25.66-26.02 16.12 21.39 29.85-8.09 5.02z m61.9 60.6l-9.21-7.84 53.59-65.84 9.25 7.77-53.63 65.91z m41.55 28.98l10.99-23.34-13.33-9.65-19.8 19.3-9.11-7.01 62.88-62.08 12.61 7.66-33.46 81.2-10.78-6.08z m16.05-34.73l13.12-30.14-1.23-1.01-22.66 23.09 10.77 8.06z m46.94 65.19l-11.35-5.28 6.61-60.56-24.83 50.92-11.31-5.2 39.39-77.98 10.23 4.7-4.73 57.6 25.58-47.55 9.54 3.94-39.13 79.41z m58.65 17.53l-7.34-2.42 0.69-6.87c-1.7 1.48-3.97 2.42-6.79 2.82-2.82 0.47-5.67 0.22-8.56-0.76-6.07-1.95-10.52-6.68-13.41-14.24-2.93-7.52-2.31-17.92 1.73-31.11 4.44-14.42 9.94-24.46 16.41-30.1s16.33-8.74 25.08-6c9.4 3 15.47 14.56 12.79 30.53l-11.2-0.94c1.92-6.83 0.9-17.49-5.78-19.69-5.42-1.77-11.49-0.07-15.36 4.23-3.83 4.3-7.62 12.43-11.31 24.43-3.51 11.31-4.48 19.62-2.93 24.86 1.55 5.24 4.23 8.46 7.95 9.68 3.72 1.23 7.12 0.72 10.19-1.52 3.07-2.13 5.53-6.4 7.41-12.5l1.59-5.1-13.41-4.34 2.75-8.74 22.01 7.15c-0.01 0.01-12.51 40.63-12.51 40.63z m116.21-19.26c-0.25 7.84-2.38 14.02-6.29 18.5-3.94 4.41-10.01 6.5-18.21 6.18-8.2-0.29-14.13-2.82-17.78-7.55-3.61-4.73-5.31-11.02-5.1-18.9l1.95-59.55 10.48 0.43-1.95 59.48c-0.18 5.6 0.94 9.76 3.25 12.43 2.35 2.71 5.49 4.16 9.43 4.34 3.94 0.14 7.19-1.08 9.68-3.61 2.49-2.53 3.87-6.58 4.05-12.14l1.95-59.48 10.48 0.4-1.94 59.47z m59.62 15.86l-9.32 1.45-29.49-56.81 4.48 61-11.13 1.55-6.5-85.46 12.79-1.19 24.32 39.82-4.52-42.89 9.29-1.55 10.08 84.08z m31.95-8.93l-10.95 3.32-22.8-80.91 10.95-3.36 22.8 80.95z m29.55-102.58l13.84 89.36-10.77 5.31-47.34-75.81 10.37-4.41 32.92 51.75-9.11-61.79 10.09-4.41z m87.92 50.66l-39.93 21.61-43.51-74.69 37.98-20.49 4.84 8.27-29.02 15.65 13.51 23.16 26.63-14.38 4.81 8.28-26.63 14.38 15.54 26.67 30.93-16.73 4.85 8.27z m45.46-31.91l-8.78 7.52-30.93-25.62-8.02 7.23 20.92 28.44-8.78 9.18-51.2-71.91 16.3-11.71c5.2-3.76 12.07-6.43 18.28-5.67 15.94 1.88 22.77 12.65 22.04 25.11-0.25 3.97-0.47 7.81-2.02 11.71l32.19 25.72z m-55.18-50.63c-6.5-1.77-11.64 3.25-16.33 6.9l17.02 22.51c5.2-3.76 7.62-4.55 11.56-11.35 1.7-8.19-1.91-15.24-12.25-18.06" fill="#003F87" p-id="14631"></path><path d="M818.66 744.59c17.89 10.77 13.7 41.19-9.76 44.74-6.32 0.94-13.77-0.98-16.91-2.96l4.01-9.11c3.87 0.87 7.77 2.24 11.49 1.55 15.21-2.89 14.56-18.68 5.67-25.22-3.07-2.31-7.48-2.57-11.17-2.13-10.26 1.08-16.84 8.78-28.26 9.5-12.47 0.76-21.18-6.83-23.24-19.01-1.05-6.43 0.47-12.65 3.65-17.67 6.61-10.37 20.63-11.74 30.82-5.71l-3.97 9.4c-5.53-2.93-15.32-2.93-19.01 2.85-1.95 3-2.6 6.07-2.02 9.25 1.3 6.87 5.96 10.88 12.58 10.05 11.09-1.37 18.54-10.48 29.49-10.12 5.17 0.14 11.39 1.44 16.63 4.59m37.65-11.06l-6.4 7.88-73.64-46.18 6.43-7.84 73.61 46.14z m-37.15-93.16l-8.13 15.14 69.53 40.87-4.66 8.71-69.56-40.91-8.13 15.1-8.67-5.13 20.96-38.88 8.66 5.1z m12.76-57.42l42.42 37.91L902.67 633l-3.47 9.54-26.23-10.19-60.42-1.37 2.93-9.68 42.17 0.69-29.88-27.46 4.15-11.58zM250.6 795.14c-7.52 7.48-14.49 11.35-20.99 11.56-6.5 0.22-12.36-2.38-17.67-7.77-4.81-4.91-7.19-10.59-7.15-17.16 0-3.32 1.01-6.72 2.89-10.23l9.58 5.85c-0.87 1.63-1.26 3.22-1.3 4.73-0.11 3.54 0.98 6.54 3.25 8.85 3.22 3.25 6.61 4.77 10.15 4.48 3.54-0.33 7.88-2.93 12.94-8.02l42.5-42.03 7.95 8.06c-0.01 0.02-42.15 41.68-42.15 41.68z m144.47-14.71l-29.74-18.47 2.71-4.66 11.06 6.83 17.67-30.82-11.06-6.87 2.42-4.16c4.19 2.57 7.52 4.01 10.01 4.34 2.49 0.36 4.59-0.65 6.25-2.96l6.36 3.94-23.78 41.41 10.77 6.68c0.01 0.01-2.67 4.74-2.67 4.74z m88.75-18.79c0.47-2.35-0.33-4.52-2.46-6.43-2.17-1.92-5.42-3.14-9.76-3.76-3.97-0.58-7.41-0.29-10.23 0.76-2.85 1.05-4.48 2.78-4.99 5.2-0.36 1.73 0 3.32 1.05 4.66 1.01 1.37 2.75 2.78 5.17 4.08 1.05 0.54 2.64 1.37 4.81 2.38 2.2 1.05 4.19 1.84 6.07 2.57 3.51-1.16 5.96-2.49 7.44-4.01 1.53-1.47 2.47-3.32 2.9-5.45m-3.86 26.63c0.43-2.17 0.14-4.01-0.9-5.46-1.08-1.48-3.36-3.11-6.87-4.95-1.12-0.61-2.71-1.3-4.66-2.13-1.95-0.79-4.19-1.73-6.61-2.82-3.29 0.87-5.93 2.13-7.95 3.87a10.91 10.91 0 0 0-3.76 6.14c-0.65 3.22 0.33 6.03 2.89 8.53 2.53 2.49 6.07 4.05 10.59 4.7 4.59 0.65 8.49 0.22 11.64-1.16 3.13-1.4 5.01-3.64 5.63-6.72m-18.43 13.12c-4.05-0.54-7.66-1.45-10.84-2.71-3.18-1.26-5.78-2.75-7.84-4.52-1.99-1.77-3.4-3.69-4.23-5.82-0.76-2.1-0.9-4.23-0.51-6.43 0.58-2.82 2.31-5.31 5.17-7.41 2.82-2.06 6.65-3.47 11.42-4.3l0.07-0.22c-3.72-2.06-6.36-4.12-7.95-6.22-1.59-2.06-2.06-4.44-1.52-7.12 0.76-4.01 3.76-6.97 9-8.96 5.17-2.02 11.31-2.49 18.47-1.52 7.44 1.05 13.15 3.11 17.13 6.25 3.97 3.11 5.53 6.65 4.77 10.55-0.47 2.38-2.02 4.55-4.66 6.61-2.6 2.02-6.03 3.36-10.37 4.12l-0.04 0.18c4.44 2.13 7.7 4.37 9.76 6.79 2.02 2.38 2.75 5.24 2.1 8.46-0.94 4.52-4.23 7.91-9.9 10.3-5.83 2.37-12.45 3.02-20.03 1.97m102.95-32.63c0-3.65-0.51-6.61-1.48-8.89-1.05-2.28-2.38-4.05-4.16-5.28-1.55-1.16-3.18-1.95-4.81-2.38-1.59-0.4-3.4-0.61-5.31-0.61-4.44 0-7.95 1.05-10.52 3.18-2.67 2.1-3.94 5.13-3.94 9.14 0 2.24 0.4 4.12 1.26 5.6 0.87 1.45 2.28 2.71 4.23 3.76 1.34 0.72 2.89 1.26 4.63 1.52 4.32 0.6 8.71 0.45 12.97-0.43 2.67-0.54 4.99-1.26 6.94-2.13 0.04-0.36 0.11-0.83 0.14-1.41 0.01-0.66 0.05-1.35 0.05-2.07m-41.2-4.59c0-2.75 0.69-5.28 2.02-7.52 1.37-2.28 3.22-4.26 5.53-5.93 2.2-1.55 4.95-2.82 8.17-3.69 3.22-0.9 6.47-1.34 9.79-1.34 3.69 0 7.05 0.43 10.01 1.26 3 0.83 5.56 2.02 7.81 3.58 2.78 1.95 4.88 4.52 6.43 7.7 1.52 3.18 2.31 7.23 2.31 12.11 0 4.41-0.76 8.6-2.24 12.58-1.48 3.97-3.69 7.26-6.58 9.9-3.11 2.78-6.83 4.88-11.13 6.36-4.34 1.45-9.68 2.17-16.04 2.17-1.45 0-2.96-0.07-4.55-0.14a50.78 50.78 0 0 1-4.55-0.61v-6.9h0.54c0.9 0.36 2.28 0.69 4.23 0.98 1.88 0.33 3.83 0.47 5.78 0.47 7.05 0 12.61-1.52 16.62-4.66 3.97-3.07 6.29-7.48 6.79-13.23-2.85 1.3-5.6 2.24-8.17 2.85-2.6 0.58-5.46 0.87-8.53 0.87-3 0-5.67-0.22-8.13-0.65-2.42-0.43-4.91-1.26-7.34-2.53-2.93-1.45-5.06-3.29-6.54-5.53-1.5-2.24-2.23-4.95-2.23-8.1m116.68-45.75l-1.95 55.18-8.42 5.31 0.72-52.14-32.23 15.65-2.82-6.22 40.51-21.07c0 0.01 4.19 3.29 4.19 3.29z m17.57-446.38c-6.5-3.14-1.92-4.26-1.55-10.37 0.33-5.24-3.04-11.27-1.99-15 2.82-9.94 15.54-6.18 22.58-1.05 1.23 0.9 2.38 3.36 3.29 5.82 2.28 6.03 4.66 14.56-2.28 18.86-5.96 3.76-14.42 4.45-20.05 1.74m-75.02-29.38c-0.22-0.14-0.4-0.29-0.58-0.43 0.22-0.76 0.47-1.52 0.69-2.17 2.31-0.29 23.81-7.88 23.89-8.38 6.5-2.96 12.47-6.61 15.72-13.12-14.35 1.05-29.31 7.7-43.33 5.38-6.03-3.14-9.54-7.7-13.55-10.73 0.04-0.29 0.11-0.54 0.14-0.76-6.11-6.54-5.28-12.79 3.4-13.51 13.08 6.47 36.71 1.73 50.99 0 3.25-0.61 12.39-1.55 15.36-3.65 7.52-17.53 10.01-36.35 15.32-53.59 7.55-11.56 13.33-1.05 19.62 7.23 0.25 1.16 1.77 2.75 2.82 5.56 0.22 0.04 0.4 0.07 0.72 0.14 2.06 6.07 2.39 8.67-3.97 12.39-5.56 7.73-9.54 16.8-11.56 26.85 9.83 0.98 17.67-5.93 28.69-3.43 1.41 5.78 0 10.05-5.85 13.08-9 1.92-18.57 3.25-28.69 5.17-4.37 8.71-10.8 19.12-19.12 25.04-1.23 0.9-7.01 4.08-8.31 4.48-6.76 1.99-13.08 4.84-19.98 5.1-19.1 0.54-19.1-0.32-22.42-0.65m-217.76 63.67c-7.91-0.47-17.2-6.18-22.8-9.83-0.07-2.02-0.22-4.08-0.14-6.07 11.17-18.07 22.51-35.3 31.29-55.03 1.7-8.42 4.59-17.63 6.72-26.05 0.14-0.22 0.4-0.47 0.69-0.61-0.14-0.29-0.25-0.47-0.33-0.69 2.82-4.73 4.19-6.25 9.65-2.42 1.95 4.23-3.97 11.92-4.84 16.95 0 8.96-0.33 18.18-1.16 27.64-0.69 1.92-0.69 1.92-2.49 12.18-3 4.91-5.24 15.86-5.56 21.97-3.83 4.84-2.49 14.53-7.34 19.95-1.34 0.64-2.53 1.33-3.69 2.01m71.63-92.29c-9.9 3.4-15.18-1.73-22.69-5.31-1.19-2.53-0.22-4.7-0.72-6.54 2.2-1.52 2.2-1.52 3.32-3.07 3.87-2.13 5.42-2.53 9.76-4.55 5.1-3.47 15.61-19.04 22.11-16.69 5.38 11.55-2.86 28.65-11.78 36.16m-82.36 10.77c-4.99-1.81-11.67-16.55-13.84-21.25-0.54-9.54 7.81-13.19 17.02-10.48 8.53 5.2 13.59 6.76 11.06 17.74-4.34 8.39-7.19 9.94-14.24 13.99m69.46-35.77c-2.82-4.16-0.36-16.48-3.07-18.14-2.24 1.3-4.34 3.14-6.76 4.26-7.01-0.54-16.26-5.17-16.08-11.64 2.42-6.61 1.23-4.73 7.84-7.84 5.31-5.42 10.7-10.73 16.12-16.12 10.15-6.29 17.56-2.31 22.44 8.17 0.79 7.7-1.7 15-4.08 22.22-4.55 5.46-8.46 11.02-12.36 16.59-1.45 0.8-2.75 1.67-4.05 2.5m-72.13-7.48c-3.07-1.12-2.57-2.6-2.13-5.13-2.06-4.41-6.22-6.97-8.17-11.24-1.7-8.53-4.34-10.84 0.72-17.24 6 0.22 27.46 2.35 27.14 14.06-2.46 8.13-10.8 15.93-17.56 19.55M241.46 476.21c-9.29 6.4-31.58 2.2-28.66-11.17-1.3-1.3-1.99-3.65-1.52-5.17-0.29-0.18-0.51-0.29-0.69-0.4-2.35-13.98-9.94-27.32-14.06-40.51-2.17-4.16-4.77-7.37-3.11-11.92 3.07-0.79 6.5 2.57 9.07 5.13 1.37-0.33 2.89-3.69 3.54-5.89-1.01-9.25-0.22-19.95-1.55-29.38-2.38-2.06-4.73-4.16-6.97-6.29-1.84 4.77-7.88 20.27-13.19 11.89 1.45-6.36 2.35-16.91-1.23-23.34-4.59-5.02-11.17-8.49-13.23-13.95 0.94-7.62 12.61-9.4 19.44-6.36 5.53 0.47 5.46-9.94 11.71 7.26 0.14 2.82 2.82 4.55 5.89 6.14 0.51-0.61 1.01-1.23 1.48-1.84-0.14-7.3-0.25-15.29 0.36-23.09-6.83-6.9-12.61-12.68-16.62-21.07 0-8.02 9.11-12.65 17.02-15.03 2.57-4.3 2.6-8.02 2.46-13.55 0.54-1.77 0.54-1.77 2.42-4.52 2.71 0.22 4.99 1.19 8.06 3 6.25 8.13-6.94 32.99 5.46 34.98 2.49-4.19-0.98-8.6-2.85-12.07 0.72-6.18 10.23-13.91 16.95-16.26 9.94-0.87 9.32 4.73 9.4 13.26 0.43 1.19 0.9 2.38 1.41 3.43 12.61 9.18 12.61 9.18 30.14 20.99 3.32 5.24 4.63 8.24 5.96 14.45 0.18 0.07 0.4 0.22 0.58 0.33-0.14 0.29-0.29 0.47-0.4 0.65 2.38 4.91 2.46 13.01-3.43 13.73-14.35-9.72-28.62-20.74-42.57-29.63-0.14 0.29-0.25 0.65-0.25 0.9 6.25 5.82 14.53 21.79 14.74 30.72-3.43 5.75-9.79 8.09-15.5 6.5-1.05-1.52-0.61-2.85-0.83-4.66-4.23-7.44-16.55-14.56-22.8-18.83-2.42 4.91 2.49 19.37 3.97 25.29 0.25 3.51 0.47 7.05 0.76 10.44 4.23 5.24 8.6 10.05 13.33 15.32 1.7 2.96 3.51 6 5.31 9.03-0.14 0.25-0.29 0.47-0.36 0.69 2.06 4.48 6.61 17.6-1.92 17.63-0.87-0.51-1.59-0.98-2.31-1.52-2.67-6.79-7.88-14.13-13.48-18.14-1.99 6.69 0.54 13.77-2.89 19.48-2.82 2.71-6 5.24-8.46 6.58-0.29-0.14-0.43-0.29-0.69-0.36-1.73 0.76-3.87 1.26-4.12 2.31 2.42 3.11 4.91 6.29 7.44 9.4 7.95 13.8 16.69 25.87 27.17 38.48 0.78 3.5 0.6 4.44-0.38 6.94m-60.71-57.53c-3.65 0.04-5.46-4.3-8.24-6.36-9.94-2.85-17.42-4.84-20.71-14.71 0.43-0.9 0.94-1.77 1.45-2.64 5.2-1.92 14.82-3.11 21.32-3.4 12.4 2.75 8.17 18.22 6.18 27.11m-25.94-29.23c-2.13 1.55-2.53 1.19-3.51 1.12-1.34-2.31-1.84-4.05-4.12-5.02-10.99-0.29-22.33-8.49-20.31-19.69 1.99-2.28 4.16-0.9 8.35 0.33 9.25-1.84 23.05-7.59 23.63 7.23-0.97 5.4-2.63 10.89-4.04 16.03M721.56 403.54l-108.7-0.07c-31.69 0-47.99 31.08-59.99 59.23l-18.32-41.23 30.79-11.35c-18.03-17.06-74.11-26.34-81.52-0.69l-13.23 53.23c-10.48-23.99-25.19-59.08-58.43-59.08H301.88c14.35 25.37 28.04 34.47 78.78 32.31l6.61 17.45-55.61 0.29c16.41 30.28 25.91 31.55 70.68 30.28l9.5 20.92-43.76 1.55c9.4 21.39 19.26 30.57 56.84 28.87l7.34 18.54-34.8 0.18c13.08 21.57 19.51 31.44 47.08 29.02l7.41 20.2h-24.1c10.44 23.27 22.55 24.25 37.36 26.56 13.33 2.06 15.21 26.99-0.29 35.02l46.8 75.96 46.83-75.96c-15.57-8.02-13.62-32.96-0.33-35.02 14.82-2.31 26.96-3.29 37.33-26.6h-24.07l7.37-20.2c27.54 2.42 34-7.48 47.08-29.02l-34.8-0.22 7.3-18.57c37.54 1.77 47.41-7.44 56.81-28.84l-43.72-1.55 9.47-20.92c44.77 1.23 54.24 0 70.68-30.32l-55.65-0.22 6.69-17.53c50.73 2.25 64.47-6.89 78.85-32.22M887.1 351.5l0.4-0.94c1.59-3.9 1.48-5.53 1.12-6.18-0.47-0.94-2.2-1.41-4.91-2.1-0.72-0.18-1.55-0.33-2.49-0.43l-1.52-0.25-0.51-1.08c-0.54-0.54-1.05-1.12-1.73-1.63l-2.1-0.72-0.47-0.25 2.71-2.06c1.92-1.48 4.12-2.13 6.54-2.93l0.22-0.61 1.05 0.43c3.87-3.32 6.4-8.2 6.72-13.26-1.16-1.63-3.14-2.35-6.11-2.35-3.83 0.07-8.46 1.52-12.61 2.78-2.53 0.8-5.67 1.81-8.42 2.35l-0.98-0.47c-6.97-3.32-7.23-3.47-21.75-11.09-1.05 0.69-1.88 1.7-2.35 2.89-0.87 2.1-0.72 4.44 0.4 6.69l1.37 1.05 0.11 0.11v0.04l-3.43 1.81c-0.79 0.43-0.98 0.54-0.87 0.54h0.04l-1.01 0.9c0.11 0.36 0.33 1.05 0.83 1.95l0.25 1.55c-0.07 1.34-0.29 1.92-1.41 3.18l-0.4 1.66-0.11 0.22-0.04 0.04-2.1-1.7c-2.78-2.2-3.04-2.42-5.1-4.34-0.54-0.07-1.08-0.18-1.73-0.18-1.55 0.07-2.85 0.54-3.4 1.34-0.61 0.83-0.51 1.95 0.11 3.47l-0.22 0.79c-0.47 2.1-2.24 5.6-8.67 5.71l-3.32-0.07c-0.61 0-1.26 0.04-2.31 0.51-0.04 4.37 1.88 4.7 6.5 5.46 1.73 0.25 3.61 0.54 6.11 1.16 0.43-0.18 0.83-0.25 1.3-0.25 0.98 0 1.73 0.4 2.71 0.87l3.43 1.37 1.23 0.33 0.58 0.25-4.19 2.06c-1.59 0.8-2.67 1.37-4.23 3.04-0.29 1.19-0.9 2.38-1.92 3.54l-0.14 0.94-1.73-0.4c-3.11-0.76-6.22-1.59-9.36-2.35l-4.81-1.26c-8.53-2.24-19.12-5.02-29.09-6.76-2.38-0.83-4.66-1.3-6.97-1.7l-4.73-0.54-0.22 1.34c1.16 0.9 2.71 2.06 5.1 3.58l0.33 0.79c1.34 3.25 3.58 7.37 8.78 10.26 3.4 0.58 7.01 1.01 11.27 1.52 12.43 1.45 25.29 2.89 35.41 10.48l2.64 1.37 0.65-0.04 0.11 0.04-3.76 1.88c-0.94 0.47-1.81 1.01-2.96 2.02l-1.16-0.25c-12-2.64-12-2.64-16.3-4.01-4.3-2.75-6.43-3.65-8.71-3.65-1.73 0.04-3.79 0.76-7.19 2.82-0.22 0.11-0.36 0.14-0.54 0.25l-0.18 0.14c-0.11 0.07-0.18 0.11-0.33 0.18l-1.19-0.47c-1.3-0.47-1.37-0.51-4.99-1.01-3.32-1.16-6.76-2.28-10.41-3.51-10.33-3.36-21.07-6.87-29.96-12.76-2.64-2.2-4.37-4.23-5.82-5.93-0.47-0.54-0.8-0.9-1.05-0.9-0.04 0-0.11 0.04-0.11 0.04l-0.87-1.12c-0.69 0.22-1.77 1.19-3.58 3.14-1.88 5.89 3.43 19.91 8.2 24.03 3.36 1.48 6.9 2.17 10.73 2.85 6.29 1.19 12.79 2.42 19.01 7.59l1.66 0.4 0.14 0.07v0.04l-1.59 2.13c-2.06 2.67-4.41 4.88-7.12 7.34l-1.23 1.01c-0.79 0.65-1.59 1.3-2.13 1.99l-1.19 0.11c-0.87 0.14-1.66 0.25-2.75 0.29-4.63 0-8.6-2.24-12.11-4.19-1.16-0.65-2.28-1.26-3.9-1.63l-0.65 1.19c4.81 8.27 11.42 15.86 20.16 23.13l0.72 1.19c1.08 0.58 2.13 0.83 3.25 0.83h0.14c6.29-0.11 13.12-8.74 18.1-15.1 1.08-1.37 2.1-2.64 3.22-3.87l1.23-0.9c4.73-3.51 5.1-3.79 4.91-3.83l1.19 0.33c4.01 1.08 6.54 2.6 10.37 4.77 3.72-1.63 7.55-5.42 7.19-9.47l-1.55-1.41c-2.24-2.06-4.48-4.16-6.79-6.18l-1.19-0.22 0.76-1.92c0.87-2.02 2.06-3.22 3.69-4.84l0.14-0.8 1.59 0.36c6.72 1.52 12.76 3.4 20.13 5.67l6.47 2.13 1.59 1.19c3.69 2.78 6.36 4.77 10.59 4.77 0.69 0 1.26-0.07 2.35-0.4 3.97-4.08 6.22-6.79 7.84-9.97 0.04-0.11 0.11-0.14 0.14-0.25-1.23-1.81-1.77-2.35-2.02-2.35l1.19-1.37c0.36-0.47 0.76-0.79 1.92-1.48 10.95-3.47 22.77-7.77 31.47-10.88 5.24-3.29 5.78-3.61 3.9-8.49-0.18-0.87-0.57-1.85-1.22-3.19m-42.54 6.47l1.77-1.63c2.42-2.24 3.51-3.32 3.76-4.41-0.11-0.43-0.61-1.01-1.73-1.77l-0.54-0.11c-0.36 0.04-0.69 0.11-1.19 0.11-1.95 0-3.14-0.9-3.83-1.73l-0.79-0.61 0.07-0.94 0.69-2.24-0.4-0.14 2.38-0.76c8.02-2.64 8.02-2.64 9.32-3.43l0.61-1.05 1.55 1.3c1.7 1.41 7.26 6.54 8.13 13.04l-0.79 0.94c-4.26 5.1-10.05 6-15.65 6.18l-1.52 0.36-0.79-2.35-1.05-0.69v-0.07z" fill="#003F87" p-id="14632"></path></svg>